<svg xmlns="http://www.w3.org/2000/svg" viewBox="0 0 87 107.79" fill="none">
<path d="M 0 8.99 C 0 6.119 2.334 3.79 5.213 3.79 L 12.708 3.79 C 15.587 3.79 17.921 6.119 17.921 8.99 L 17.921 16.465 C 17.921 19.337 15.587 21.665 12.708 21.665 L 5.213 21.665 C 2.334 21.665 0 19.337 0 16.465 L 0 8.99 Z" fill="currentColor" fill-rule="nonzero"></path>
<path d="M 17.27 26.215 C 17.27 23.344 19.604 21.015 22.483 21.015 L 29.978 21.015 C 32.857 21.015 35.191 23.344 35.191 26.215 L 35.191 33.69 C 35.191 36.562 32.857 38.89 29.978 38.89 L 22.483 38.89 C 19.604 38.89 17.27 36.562 17.27 33.69 L 17.27 26.215 Z" fill="currentColor" fill-rule="nonzero"></path>
<path d="M 34.539 8.99 C 34.539 6.119 36.873 3.79 39.753 3.79 L 47.247 3.79 C 50.127 3.79 52.461 6.119 52.461 8.99 L 52.461 16.465 C 52.461 19.337 50.127 21.665 47.247 21.665 L 39.753 21.665 C 36.873 21.665 34.539 19.337 34.539 16.465 L 34.539 8.99 Z" fill="currentColor" fill-rule="nonzero"></path>
<path d="M 69.079 8.99 C 69.079 6.119 71.413 3.79 74.292 3.79 L 81.787 3.79 C 84.666 3.79 87 6.119 87 8.99 L 87 16.465 C 87 19.337 84.666 21.665 81.787 21.665 L 74.292 21.665 C 71.413 21.665 69.079 19.337 69.079 16.465 L 69.079 8.99 Z" fill="currentColor" fill-rule="nonzero"></path>
<path d="M 51.809 26.215 C 51.809 23.344 54.143 21.015 57.022 21.015 L 64.517 21.015 C 67.396 21.015 69.73 23.344 69.73 26.215 L 69.73 33.69 C 69.73 36.562 67.396 38.89 64.517 38.89 L 57.022 38.89 C 54.143 38.89 51.809 36.562 51.809 33.69 L 51.809 26.215 Z" fill="currentColor" fill-rule="nonzero"></path>
<path d="M 34.539 43.44 C 34.539 40.569 36.873 38.24 39.753 38.24 L 47.247 38.24 C 50.127 38.24 52.461 40.569 52.461 43.44 L 52.461 50.915 C 52.461 53.787 50.127 56.115 47.247 56.115 L 39.753 56.115 C 36.873 56.115 34.539 53.787 34.539 50.915 L 34.539 43.44 Z" fill="currentColor" fill-rule="nonzero"></path>
<path d="M 51.809 60.665 C 51.809 57.794 54.143 55.465 57.022 55.465 L 64.517 55.465 C 67.396 55.465 69.73 57.794 69.73 60.665 L 69.73 68.14 C 69.73 71.012 67.396 73.34 64.517 73.34 L 57.022 73.34 C 54.143 73.34 51.809 71.012 51.809 68.14 L 51.809 60.665 Z" fill="currentColor" fill-rule="nonzero"></path>
<path d="M 69.079 77.89 C 69.079 75.019 71.413 72.69 74.292 72.69 L 81.787 72.69 C 84.666 72.69 87 75.019 87 77.89 L 87 85.365 C 87 88.237 84.666 90.565 81.787 90.565 L 74.292 90.565 C 71.413 90.565 69.079 88.237 69.079 85.365 L 69.079 77.89 Z" fill="currentColor" fill-rule="nonzero"></path>
<path d="M 17.27 60.665 C 17.27 57.794 19.604 55.465 22.483 55.465 L 29.978 55.465 C 32.857 55.465 35.191 57.794 35.191 60.665 L 35.191 68.14 C 35.191 71.012 32.857 73.34 29.978 73.34 L 22.483 73.34 C 19.604 73.34 17.27 71.012 17.27 68.14 L 17.27 60.665 Z" fill="currentColor" fill-rule="nonzero"></path>
<path d="M 34.539 77.89 C 34.539 75.019 36.873 72.69 39.753 72.69 L 47.247 72.69 C 50.127 72.69 52.461 75.019 52.461 77.89 L 52.461 85.365 C 52.461 88.237 50.127 90.565 47.247 90.565 L 39.753 90.565 C 36.873 90.565 34.539 88.237 34.539 85.365 L 34.539 77.89 Z" fill="currentColor" fill-rule="nonzero"></path>
<path d="M 51.809 95.115 C 51.809 92.244 54.143 89.915 57.022 89.915 L 64.517 89.915 C 67.396 89.915 69.73 92.244 69.73 95.115 L 69.73 102.59 C 69.73 105.462 67.396 107.79 64.517 107.79 L 57.022 107.79 C 54.143 107.79 51.809 105.462 51.809 102.59 L 51.809 95.115 Z" fill="currentColor" fill-rule="nonzero"></path>
<path d="M 0 77.89 C 0 75.019 2.334 72.69 5.213 72.69 L 12.708 72.69 C 15.587 72.69 17.921 75.019 17.921 77.89 L 17.921 85.365 C 17.921 88.237 15.587 90.565 12.708 90.565 L 5.213 90.565 C 2.334 90.565 0 88.237 0 85.365 L 0 77.89 Z" fill="currentColor" fill-rule="nonzero"></path>
<path d="M 17.27 95.115 C 17.27 92.244 19.604 89.915 22.483 89.915 L 29.978 89.915 C 32.857 89.915 35.191 92.244 35.191 95.115 L 35.191 102.59 C 35.191 105.462 32.857 107.79 29.978 107.79 L 22.483 107.79 C 19.604 107.79 17.27 105.462 17.27 102.59 L 17.27 95.115 Z" fill="currentColor" fill-rule="nonzero"></path>
<path d="M 17.27 26.053 C 17.27 22.315 16.374 21.665 12.871 21.665 L 17.921 16.628 C 17.921 20.138 20.935 21.015 22.32 21.015 L 17.27 26.053 Z" fill="currentColor" fill-rule="nonzero"></path>
<path d="M 51.809 94.953 C 51.809 91.215 50.913 90.565 47.41 90.565 L 52.461 85.528 C 52.461 89.038 55.475 89.915 56.86 89.915 L 51.809 94.953 Z" fill="currentColor" fill-rule="nonzero"></path>
<path d="M 69.079 77.728 C 69.079 73.99 68.183 73.34 64.68 73.34 L 69.73 68.303 C 69.73 71.813 72.744 72.69 74.129 72.69 L 69.079 77.728 Z" fill="currentColor" fill-rule="nonzero"></path>
<path d="M 35.191 26.053 C 35.191 22.315 36.087 21.665 39.59 21.665 L 34.539 16.628 C 34.539 20.138 31.525 21.015 30.14 21.015 L 35.191 26.053 Z" fill="currentColor" fill-rule="nonzero"></path>
<path d="M 52.461 43.278 C 52.461 39.54 53.357 38.89 56.86 38.89 L 51.809 33.853 C 51.809 37.363 48.795 38.24 47.41 38.24 L 52.461 43.278 Z" fill="currentColor" fill-rule="nonzero"></path>
<path d="M 35.191 60.503 C 35.191 56.765 36.087 56.115 39.59 56.115 L 34.539 51.078 C 34.539 54.588 31.525 55.465 30.14 55.465 L 35.191 60.503 Z" fill="currentColor" fill-rule="nonzero"></path>
<path d="M 52.461 77.728 C 52.461 73.99 53.357 73.34 56.86 73.34 L 51.809 68.303 C 51.809 71.813 48.795 72.69 47.41 72.69 L 52.461 77.728 Z" fill="currentColor" fill-rule="nonzero"></path>
<path d="M 17.921 77.728 C 17.921 73.99 18.817 73.34 22.32 73.34 L 17.27 68.303 C 17.27 71.813 14.256 72.69 12.871 72.69 L 17.921 77.728 Z" fill="currentColor" fill-rule="nonzero"></path>
<path d="M 35.191 94.953 C 35.191 91.215 36.087 90.565 39.59 90.565 L 34.539 85.528 C 34.539 89.038 31.525 89.915 30.14 89.915 L 35.191 94.953 Z" fill="currentColor" fill-rule="nonzero"></path>
<path d="M 69.73 26.053 C 69.73 22.315 70.626 21.665 74.129 21.665 L 69.079 16.628 C 69.079 20.138 66.065 21.015 64.68 21.015 L 69.73 26.053 Z" fill="currentColor" fill-rule="nonzero"></path>
</svg>